<svg
  xmlns="http://www.w3.org/2000/svg"
  width="1440"
  height="138"
  viewBox="0 0 1440 138"
  fill="none"
>
  <path
    fill-rule="evenodd"
    clip-rule="evenodd"
    d="M1470 16.6195L1461.82 27.1956C1451.59 37.7717 1433.17 59.6793 1414.76 62.701C1396.35 64.9673 1379.98 49.1032 1361.57 37.7717C1343.16 27.1956 1324.75 21.9076 1306.33 35.5054C1287.92 49.1032 1269.51 81.5869 1251.1 98.2064C1232.68 114.071 1216.32 114.071 1197.9 119.359C1179.49 125.402 1161.08 135.978 1142.67 132.956C1124.25 130.69 1105.84 114.071 1087.43 105.761C1069.02 98.2064 1052.65 98.2064 1034.24 86.8749C1015.82 76.2988 997.413 54.3912 979 57.413C960.587 59.6793 942.175 86.8749 923.763 108.782C905.35 130.69 888.983 146.554 870.571 132.956C852.158 119.359 833.746 76.2988 815.333 59.6793C796.921 43.8152 778.508 54.3912 760.096 51.3695C741.683 49.1032 725.317 32.4837 706.904 24.1739C688.492 16.6195 670.079 16.6195 651.667 32.4837C633.254 49.1032 614.842 81.5869 596.429 100.473C578.017 119.359 561.65 125.402 543.237 125.402C524.825 125.402 506.412 119.359 488 111.804C469.587 103.494 451.175 92.1629 432.762 73.2771C414.35 54.3912 397.983 27.1956 379.571 16.6195C361.158 5.28804 342.746 10.5761 324.333 35.5054C305.921 59.6793 287.508 103.494 269.096 117.092C250.683 130.69 234.317 114.071 215.904 98.2064C197.492 81.5869 179.079 64.9673 160.667 67.989C142.254 71.0108 123.842 92.1629 105.429 84.6086C87.0166 76.2988 70.65 37.7717 52.2375 27.1956C33.825 16.6195 15.4125 32.4837 5.18335 40.7934L-3 49.1032V0H5.18335C15.4125 0 33.825 0 52.2375 0C70.65 0 87.0166 0 105.429 0C123.842 0 142.254 0 160.667 0C179.079 0 197.492 0 215.904 0C234.317 0 250.683 0 269.096 0C287.508 0 305.921 0 324.333 0C342.746 0 361.158 0 379.571 0C397.983 0 414.35 0 432.762 0C451.175 0 469.587 0 488 0C506.412 0 524.825 0 543.237 0C561.65 0 578.017 0 596.429 0C614.842 0 633.254 0 651.667 0C670.079 0 688.492 0 706.904 0C725.317 0 741.683 0 760.096 0C778.508 0 796.921 0 815.333 0C833.746 0 852.158 0 870.571 0C888.983 0 905.35 0 923.763 0C942.175 0 960.587 0 979 0C997.413 0 1015.82 0 1034.24 0C1052.65 0 1069.02 0 1087.43 0C1105.84 0 1124.25 0 1142.67 0C1161.08 0 1179.49 0 1197.9 0C1216.32 0 1232.68 0 1251.1 0C1269.51 0 1287.92 0 1306.33 0C1324.75 0 1343.16 0 1361.57 0C1379.98 0 1396.35 0 1414.76 0C1433.17 0 1451.59 0 1461.82 0H1470V16.6195Z"
    fill="#121416"
  />
</svg>