<svg
  xmlns="http://www.w3.org/2000/svg"
  width="1440"
  height="146"
  viewBox="0 0 1440 146"
  fill="none"
>
  <g filter="url(#filter0_f_20_150)">
    <path
      fill-rule="evenodd"
      clip-rule="evenodd"
      d="M1443 20.6195L1434.82 31.1956C1424.59 41.7717 1406.17 63.6793 1387.76 66.701C1369.35 68.9673 1352.98 53.1032 1334.57 41.7717C1316.16 31.1956 1297.75 25.9076 1279.33 39.5054C1260.92 53.1032 1242.51 85.5869 1224.1 102.206C1205.68 118.071 1189.32 118.071 1170.9 123.359C1152.49 129.402 1134.08 139.978 1115.67 136.956C1097.25 134.69 1078.84 118.071 1060.43 109.761C1042.02 102.206 1025.65 102.206 1007.24 90.8749C988.825 80.2988 970.413 58.3912 952 61.413C933.587 63.6793 915.175 90.8749 896.763 112.782C878.35 134.69 861.983 150.554 843.571 136.956C825.158 123.359 806.746 80.2988 788.333 63.6793C769.921 47.8152 751.508 58.3912 733.096 55.3695C714.683 53.1032 698.317 36.4837 679.904 28.1739C661.492 20.6195 643.079 20.6195 624.667 36.4837C606.254 53.1032 587.842 85.5869 569.429 104.473C551.017 123.359 534.65 129.402 516.237 129.402C497.825 129.402 479.412 123.359 461 115.804C442.587 107.494 424.175 96.1629 405.762 77.2771C387.35 58.3912 370.983 31.1956 352.571 20.6195C334.158 9.28804 315.746 14.5761 297.333 39.5054C278.921 63.6793 260.508 107.494 242.096 121.092C223.683 134.69 207.317 118.071 188.904 102.206C170.492 85.5869 152.079 68.9673 133.667 71.989C115.254 75.0108 96.8417 96.1629 78.4292 88.6086C60.0166 80.2988 43.65 41.7717 25.2375 31.1956C6.82495 20.6195 -11.5875 36.4837 -21.8167 44.7934L-30 53.1032V4H-21.8167C-11.5875 4 6.82495 4 25.2375 4C43.65 4 60.0166 4 78.4292 4C96.8417 4 115.254 4 133.667 4C152.079 4 170.492 4 188.904 4C207.317 4 223.683 4 242.096 4C260.508 4 278.921 4 297.333 4C315.746 4 334.158 4 352.571 4C370.983 4 387.35 4 405.762 4C424.175 4 442.587 4 461 4C479.412 4 497.825 4 516.237 4C534.65 4 551.017 4 569.429 4C587.842 4 606.254 4 624.667 4C643.079 4 661.492 4 679.904 4C698.317 4 714.683 4 733.096 4C751.508 4 769.921 4 788.333 4C806.746 4 825.158 4 843.571 4C861.983 4 878.35 4 896.763 4C915.175 4 933.587 4 952 4C970.413 4 988.825 4 1007.24 4C1025.65 4 1042.02 4 1060.43 4C1078.84 4 1097.25 4 1115.67 4C1134.08 4 1152.49 4 1170.9 4C1189.32 4 1205.68 4 1224.1 4C1242.51 4 1260.92 4 1279.33 4C1297.75 4 1316.16 4 1334.57 4C1352.98 4 1369.35 4 1387.76 4C1406.17 4 1424.59 4 1434.82 4H1443V20.6195Z"
      fill="url(#paint0_linear_20_150)"
    />
    <path
      fill-rule="evenodd"
      clip-rule="evenodd"
      d="M1443 20.6195L1434.82 31.1956C1424.59 41.7717 1406.17 63.6793 1387.76 66.701C1369.35 68.9673 1352.98 53.1032 1334.57 41.7717C1316.16 31.1956 1297.75 25.9076 1279.33 39.5054C1260.92 53.1032 1242.51 85.5869 1224.1 102.206C1205.68 118.071 1189.32 118.071 1170.9 123.359C1152.49 129.402 1134.08 139.978 1115.67 136.956C1097.25 134.69 1078.84 118.071 1060.43 109.761C1042.02 102.206 1025.65 102.206 1007.24 90.8749C988.825 80.2988 970.413 58.3912 952 61.413C933.587 63.6793 915.175 90.8749 896.763 112.782C878.35 134.69 861.983 150.554 843.571 136.956C825.158 123.359 806.746 80.2988 788.333 63.6793C769.921 47.8152 751.508 58.3912 733.096 55.3695C714.683 53.1032 698.317 36.4837 679.904 28.1739C661.492 20.6195 643.079 20.6195 624.667 36.4837C606.254 53.1032 587.842 85.5869 569.429 104.473C551.017 123.359 534.65 129.402 516.237 129.402C497.825 129.402 479.412 123.359 461 115.804C442.587 107.494 424.175 96.1629 405.762 77.2771C387.35 58.3912 370.983 31.1956 352.571 20.6195C334.158 9.28804 315.746 14.5761 297.333 39.5054C278.921 63.6793 260.508 107.494 242.096 121.092C223.683 134.69 207.317 118.071 188.904 102.206C170.492 85.5869 152.079 68.9673 133.667 71.989C115.254 75.0108 96.8417 96.1629 78.4292 88.6086C60.0166 80.2988 43.65 41.7717 25.2375 31.1956C6.82495 20.6195 -11.5875 36.4837 -21.8167 44.7934L-30 53.1032V4H-21.8167C-11.5875 4 6.82495 4 25.2375 4C43.65 4 60.0166 4 78.4292 4C96.8417 4 115.254 4 133.667 4C152.079 4 170.492 4 188.904 4C207.317 4 223.683 4 242.096 4C260.508 4 278.921 4 297.333 4C315.746 4 334.158 4 352.571 4C370.983 4 387.35 4 405.762 4C424.175 4 442.587 4 461 4C479.412 4 497.825 4 516.237 4C534.65 4 551.017 4 569.429 4C587.842 4 606.254 4 624.667 4C643.079 4 661.492 4 679.904 4C698.317 4 714.683 4 733.096 4C751.508 4 769.921 4 788.333 4C806.746 4 825.158 4 843.571 4C861.983 4 878.35 4 896.763 4C915.175 4 933.587 4 952 4C970.413 4 988.825 4 1007.24 4C1025.65 4 1042.02 4 1060.43 4C1078.84 4 1097.25 4 1115.67 4C1134.08 4 1152.49 4 1170.9 4C1189.32 4 1205.68 4 1224.1 4C1242.51 4 1260.92 4 1279.33 4C1297.75 4 1316.16 4 1334.57 4C1352.98 4 1369.35 4 1387.76 4C1406.17 4 1424.59 4 1434.82 4H1443V20.6195Z"
      stroke="black"
    />
  </g>
  <defs>
    <filter
      id="filter0_f_20_150"
      x="-34"
      y="0"
      width="1481"
      height="146"
      filterUnits="userSpaceOnUse"
      color-interpolation-filters="sRGB"
    >
      <feFlood flood-opacity="0" result="BackgroundImageFix" />
      <feBlend
        mode="normal"
        in="SourceGraphic"
        in2="BackgroundImageFix"
        result="shape"
      />
      <feGaussianBlur
        stdDeviation="2"
        result="effect1_foregroundBlur_20_150"
      />
    </filter>
    <linearGradient
      id="paint0_linear_20_150"
      x1="706.5"
      y1="142"
      x2="547.454"
      y2="144.736"
      gradientUnits="userSpaceOnUse"
    >
      <stop stop-color="#989797" />
      <stop offset="1" stop-color="#A2A2A2" />
    </linearGradient>
  </defs>
</svg>