<svg
  xmlns="http://www.w3.org/2000/svg"
  width="1440"
  height="138"
  viewBox="0 0 1440 138"
  fill="none"
>
  <path
    fill-rule="evenodd"
    clip-rule="evenodd"
    d="M1457 16.6195L1448.82 27.1956C1438.59 37.7717 1420.17 59.6793 1401.76 62.701C1383.35 64.9673 1366.98 49.1032 1348.57 37.7717C1330.16 27.1956 1311.75 21.9076 1293.33 35.5054C1274.92 49.1032 1256.51 81.5869 1238.1 98.2064C1219.68 114.071 1203.32 114.071 1184.9 119.359C1166.49 125.402 1148.08 135.978 1129.67 132.956C1111.25 130.69 1092.84 114.071 1074.43 105.761C1056.02 98.2064 1039.65 98.2064 1021.24 86.8749C1002.82 76.2988 984.413 54.3912 966 57.413C947.587 59.6793 929.175 86.8749 910.763 108.782C892.35 130.69 875.983 146.554 857.571 132.956C839.158 119.359 820.746 76.2988 802.333 59.6793C783.921 43.8152 765.508 54.3912 747.096 51.3695C728.683 49.1032 712.317 32.4837 693.904 24.1739C675.492 16.6195 657.079 16.6195 638.667 32.4837C620.254 49.1032 601.842 81.5869 583.429 100.473C565.017 119.359 548.65 125.402 530.237 125.402C511.825 125.402 493.412 119.359 475 111.804C456.587 103.494 438.175 92.1629 419.762 73.2771C401.35 54.3912 384.983 27.1956 366.571 16.6195C348.158 5.28804 329.746 10.5761 311.333 35.5054C292.921 59.6793 274.508 103.494 256.096 117.092C237.683 130.69 221.317 114.071 202.904 98.2064C184.492 81.5869 166.079 64.9673 147.667 67.989C129.254 71.0108 110.842 92.1629 92.4292 84.6086C74.0166 76.2988 57.65 37.7717 39.2375 27.1956C20.825 16.6195 2.41248 32.4837 -7.81665 40.7934L-16 49.1032V0H-7.81665C2.41248 0 20.825 0 39.2375 0C57.65 0 74.0166 0 92.4292 0C110.842 0 129.254 0 147.667 0C166.079 0 184.492 0 202.904 0C221.317 0 237.683 0 256.096 0C274.508 0 292.921 0 311.333 0C329.746 0 348.158 0 366.571 0C384.983 0 401.35 0 419.762 0C438.175 0 456.587 0 475 0C493.412 0 511.825 0 530.237 0C548.65 0 565.017 0 583.429 0C601.842 0 620.254 0 638.667 0C657.079 0 675.492 0 693.904 0C712.317 0 728.683 0 747.096 0C765.508 0 783.921 0 802.333 0C820.746 0 839.158 0 857.571 0C875.983 0 892.35 0 910.763 0C929.175 0 947.587 0 966 0C984.413 0 1002.82 0 1021.24 0C1039.65 0 1056.02 0 1074.43 0C1092.84 0 1111.25 0 1129.67 0C1148.08 0 1166.49 0 1184.9 0C1203.32 0 1219.68 0 1238.1 0C1256.51 0 1274.92 0 1293.33 0C1311.75 0 1330.16 0 1348.57 0C1366.98 0 1383.35 0 1401.76 0C1420.17 0 1438.59 0 1448.82 0H1457V16.6195Z"
    fill="url(#paint0_linear_20_151)"
  />
  <defs>
    <linearGradient
      id="paint0_linear_20_151"
      x1="720.5"
      y1="138"
      x2="561.454"
      y2="140.736"
      gradientUnits="userSpaceOnUse"
    >
      <stop stop-color="#444345" />
      <stop offset="1" stop-color="#393939" />
    </linearGradient>
  </defs>
</svg>