<svg width="1504" height="154" viewBox="0 0 1504 154" fill="none" xmlns="http://www.w3.org/2000/svg">
  <g filter="url(#filter0_f_65_321)">
    <path fill-rule="evenodd" clip-rule="evenodd"
      d="M1477 28.6195L1468.82 39.1956C1458.59 49.7717 1440.17 71.6793 1421.76 74.701C1403.35 76.9673 1386.98 61.1032 1368.57 49.7717C1350.16 39.1956 1331.75 33.9076 1313.33 47.5054C1294.92 61.1032 1276.51 93.5869 1258.1 110.206C1239.68 126.071 1223.32 126.071 1204.9 131.359C1186.49 137.402 1168.08 147.978 1149.67 144.956C1131.25 142.69 1112.84 126.071 1094.43 117.761C1076.02 110.206 1059.65 110.206 1041.24 98.8749C1022.82 88.2988 1004.41 66.3912 986 69.413C967.587 71.6793 949.175 98.8749 930.762 120.782C912.35 142.69 895.983 158.554 877.571 144.956C859.158 131.359 840.746 88.2988 822.333 71.6793C803.921 55.8152 785.508 66.3912 767.096 63.3695C748.683 61.1032 732.317 44.4837 713.904 36.1739C695.492 28.6195 677.079 28.6195 658.667 44.4837C640.254 61.1032 621.842 93.5869 603.429 112.473C585.017 131.359 568.65 137.402 550.237 137.402C531.825 137.402 513.412 131.359 495 123.804C476.587 115.494 458.175 104.163 439.762 85.2771C421.35 66.3912 404.983 39.1956 386.571 28.6195C368.158 17.288 349.746 22.5761 331.333 47.5054C312.921 71.6793 294.508 115.494 276.096 129.092C257.683 142.69 241.317 126.071 222.904 110.206C204.492 93.5869 186.079 76.9673 167.667 79.989C149.254 83.0108 130.842 104.163 112.429 96.6086C94.0167 88.2988 77.65 49.7717 59.2375 39.1956C40.825 28.6195 22.4125 44.4837 12.1833 52.7934L3.99999 61.1032V12H12.1833C22.4125 12 40.825 12 59.2375 12C77.65 12 94.0167 12 112.429 12C130.842 12 149.254 12 167.667 12C186.079 12 204.492 12 222.904 12C241.317 12 257.683 12 276.096 12C294.508 12 312.921 12 331.333 12C349.746 12 368.158 12 386.571 12C404.983 12 421.35 12 439.762 12C458.175 12 476.587 12 495 12C513.412 12 531.825 12 550.237 12C568.65 12 585.017 12 603.429 12C621.842 12 640.254 12 658.667 12C677.079 12 695.492 12 713.904 12C732.317 12 748.683 12 767.096 12C785.508 12 803.921 12 822.333 12C840.746 12 859.158 12 877.571 12C895.983 12 912.35 12 930.762 12C949.175 12 967.587 12 986 12C1004.41 12 1022.82 12 1041.24 12C1059.65 12 1076.02 12 1094.43 12C1112.84 12 1131.25 12 1149.67 12C1168.08 12 1186.49 12 1204.9 12C1223.32 12 1239.68 12 1258.1 12C1276.51 12 1294.92 12 1313.33 12C1331.75 12 1350.16 12 1368.57 12C1386.98 12 1403.35 12 1421.76 12C1440.17 12 1458.59 12 1468.82 12H1477V28.6195Z"
      fill="url(#paint0_linear_65_321)" />
    <path fill-rule="evenodd" clip-rule="evenodd"
      d="M1477 28.6195L1468.82 39.1956C1458.59 49.7717 1440.17 71.6793 1421.76 74.701C1403.35 76.9673 1386.98 61.1032 1368.57 49.7717C1350.16 39.1956 1331.75 33.9076 1313.33 47.5054C1294.92 61.1032 1276.51 93.5869 1258.1 110.206C1239.68 126.071 1223.32 126.071 1204.9 131.359C1186.49 137.402 1168.08 147.978 1149.67 144.956C1131.25 142.69 1112.84 126.071 1094.43 117.761C1076.02 110.206 1059.65 110.206 1041.24 98.8749C1022.82 88.2988 1004.41 66.3912 986 69.413C967.587 71.6793 949.175 98.8749 930.762 120.782C912.35 142.69 895.983 158.554 877.571 144.956C859.158 131.359 840.746 88.2988 822.333 71.6793C803.921 55.8152 785.508 66.3912 767.096 63.3695C748.683 61.1032 732.317 44.4837 713.904 36.1739C695.492 28.6195 677.079 28.6195 658.667 44.4837C640.254 61.1032 621.842 93.5869 603.429 112.473C585.017 131.359 568.65 137.402 550.237 137.402C531.825 137.402 513.412 131.359 495 123.804C476.587 115.494 458.175 104.163 439.762 85.2771C421.35 66.3912 404.983 39.1956 386.571 28.6195C368.158 17.288 349.746 22.5761 331.333 47.5054C312.921 71.6793 294.508 115.494 276.096 129.092C257.683 142.69 241.317 126.071 222.904 110.206C204.492 93.5869 186.079 76.9673 167.667 79.989C149.254 83.0108 130.842 104.163 112.429 96.6086C94.0167 88.2988 77.65 49.7717 59.2375 39.1956C40.825 28.6195 22.4125 44.4837 12.1833 52.7934L3.99999 61.1032V12H12.1833C22.4125 12 40.825 12 59.2375 12C77.65 12 94.0167 12 112.429 12C130.842 12 149.254 12 167.667 12C186.079 12 204.492 12 222.904 12C241.317 12 257.683 12 276.096 12C294.508 12 312.921 12 331.333 12C349.746 12 368.158 12 386.571 12C404.983 12 421.35 12 439.762 12C458.175 12 476.587 12 495 12C513.412 12 531.825 12 550.237 12C568.65 12 585.017 12 603.429 12C621.842 12 640.254 12 658.667 12C677.079 12 695.492 12 713.904 12C732.317 12 748.683 12 767.096 12C785.508 12 803.921 12 822.333 12C840.746 12 859.158 12 877.571 12C895.983 12 912.35 12 930.762 12C949.175 12 967.587 12 986 12C1004.41 12 1022.82 12 1041.24 12C1059.65 12 1076.02 12 1094.43 12C1112.84 12 1131.25 12 1149.67 12C1168.08 12 1186.49 12 1204.9 12C1223.32 12 1239.68 12 1258.1 12C1276.51 12 1294.92 12 1313.33 12C1331.75 12 1350.16 12 1368.57 12C1386.98 12 1403.35 12 1421.76 12C1440.17 12 1458.59 12 1468.82 12H1477V28.6195Z"
      stroke="black" />
  </g>
  <path fill-rule="evenodd" clip-rule="evenodd"
    d="M1491 24.6195L1482.82 35.1956C1472.59 45.7717 1454.17 67.6793 1435.76 70.701C1417.35 72.9673 1400.98 57.1032 1382.57 45.7717C1364.16 35.1956 1345.75 29.9076 1327.33 43.5054C1308.92 57.1032 1290.51 89.5869 1272.1 106.206C1253.68 122.071 1237.32 122.071 1218.9 127.359C1200.49 133.402 1182.08 143.978 1163.67 140.956C1145.25 138.69 1126.84 122.071 1108.43 113.761C1090.02 106.206 1073.65 106.206 1055.24 94.8749C1036.82 84.2988 1018.41 62.3912 1000 65.413C981.587 67.6793 963.175 94.8749 944.762 116.782C926.35 138.69 909.983 154.554 891.571 140.956C873.158 127.359 854.746 84.2988 836.333 67.6793C817.921 51.8152 799.508 62.3912 781.096 59.3695C762.683 57.1032 746.317 40.4837 727.904 32.1739C709.492 24.6195 691.079 24.6195 672.667 40.4837C654.254 57.1032 635.842 89.5869 617.429 108.473C599.017 127.359 582.65 133.402 564.237 133.402C545.825 133.402 527.412 127.359 509 119.804C490.587 111.494 472.175 100.163 453.762 81.2771C435.35 62.3912 418.983 35.1956 400.571 24.6195C382.158 13.288 363.746 18.5761 345.333 43.5054C326.921 67.6793 308.508 111.494 290.096 125.092C271.683 138.69 255.317 122.071 236.904 106.206C218.492 89.5869 200.079 72.9673 181.667 75.989C163.254 79.0108 144.842 100.163 126.429 92.6086C108.017 84.2988 91.65 45.7717 73.2375 35.1956C54.825 24.6195 36.4125 40.4837 26.1833 48.7934L18 57.1032V8H26.1833C36.4125 8 54.825 8 73.2375 8C91.65 8 108.017 8 126.429 8C144.842 8 163.254 8 181.667 8C200.079 8 218.492 8 236.904 8C255.317 8 271.683 8 290.096 8C308.508 8 326.921 8 345.333 8C363.746 8 382.158 8 400.571 8C418.983 8 435.35 8 453.762 8C472.175 8 490.587 8 509 8C527.412 8 545.825 8 564.237 8C582.65 8 599.017 8 617.429 8C635.842 8 654.254 8 672.667 8C691.079 8 709.492 8 727.904 8C746.317 8 762.683 8 781.096 8C799.508 8 817.921 8 836.333 8C854.746 8 873.158 8 891.571 8C909.983 8 926.35 8 944.762 8C963.175 8 981.587 8 1000 8C1018.41 8 1036.82 8 1055.24 8C1073.65 8 1090.02 8 1108.43 8C1126.84 8 1145.25 8 1163.67 8C1182.08 8 1200.49 8 1218.9 8C1237.32 8 1253.68 8 1272.1 8C1290.51 8 1308.92 8 1327.33 8C1345.75 8 1364.16 8 1382.57 8C1400.98 8 1417.35 8 1435.76 8C1454.17 8 1472.59 8 1482.82 8H1491V24.6195Z"
    fill="url(#paint1_linear_65_321)" />
  <path fill-rule="evenodd" clip-rule="evenodd"
    d="M1504 16.6195L1495.82 27.1956C1485.59 37.7717 1467.17 59.6793 1448.76 62.701C1430.35 64.9673 1413.98 49.1032 1395.57 37.7717C1377.16 27.1956 1358.75 21.9076 1340.33 35.5054C1321.92 49.1032 1303.51 81.5869 1285.1 98.2064C1266.68 114.071 1250.32 114.071 1231.9 119.359C1213.49 125.402 1195.08 135.978 1176.67 132.956C1158.25 130.69 1139.84 114.071 1121.43 105.761C1103.02 98.2064 1086.65 98.2064 1068.24 86.8749C1049.82 76.2988 1031.41 54.3912 1013 57.413C994.587 59.6793 976.175 86.8749 957.762 108.782C939.35 130.69 922.983 146.554 904.571 132.956C886.158 119.359 867.746 76.2988 849.333 59.6793C830.921 43.8152 812.508 54.3912 794.096 51.3695C775.683 49.1032 759.317 32.4837 740.904 24.1739C722.492 16.6195 704.079 16.6195 685.667 32.4837C667.254 49.1032 648.842 81.5869 630.429 100.473C612.017 119.359 595.65 125.402 577.237 125.402C558.825 125.402 540.412 119.359 522 111.804C503.587 103.494 485.175 92.1629 466.762 73.2771C448.35 54.3912 431.983 27.1956 413.571 16.6195C395.158 5.28804 376.746 10.5761 358.333 35.5054C339.921 59.6793 321.508 103.494 303.096 117.092C284.683 130.69 268.317 114.071 249.904 98.2064C231.492 81.5869 213.079 64.9673 194.667 67.989C176.254 71.0108 157.842 92.1629 139.429 84.6086C121.017 76.2988 104.65 37.7717 86.2375 27.1956C67.825 16.6195 49.4125 32.4837 39.1833 40.7934L31 49.1032V-3.32997e-07H39.1833C49.4125 -3.32997e-07 67.825 -3.32997e-07 86.2375 -3.32997e-07C104.65 -3.32997e-07 121.017 -3.32997e-07 139.429 -3.32997e-07C157.842 -3.32997e-07 176.254 -3.32997e-07 194.667 -3.32997e-07C213.079 -3.32997e-07 231.492 -3.32997e-07 249.904 -3.32997e-07C268.317 -3.32997e-07 284.683 -3.32997e-07 303.096 -3.32997e-07C321.508 -3.32997e-07 339.921 -3.32997e-07 358.333 -3.32997e-07C376.746 -3.32997e-07 395.158 -3.32997e-07 413.571 -3.32997e-07C431.983 -3.32997e-07 448.35 -3.32997e-07 466.762 -3.32997e-07C485.175 -3.32997e-07 503.587 -3.32997e-07 522 -3.32997e-07C540.412 -3.32997e-07 558.825 -3.32997e-07 577.237 -3.32997e-07C595.65 -3.32997e-07 612.017 -3.32997e-07 630.429 -3.32997e-07C648.842 -3.32997e-07 667.254 -3.32997e-07 685.667 -3.32997e-07C704.079 -3.32997e-07 722.492 -3.32997e-07 740.904 -3.32997e-07C759.317 -3.32997e-07 775.683 -3.32997e-07 794.096 -3.32997e-07C812.508 -3.32997e-07 830.921 -3.32997e-07 849.333 -3.32997e-07C867.746 -3.32997e-07 886.158 -3.32997e-07 904.571 -3.32997e-07C922.983 -3.32997e-07 939.35 -3.32997e-07 957.762 -3.32997e-07C976.175 -3.32997e-07 994.587 -3.32997e-07 1013 -3.32997e-07C1031.41 -3.32997e-07 1049.82 -3.32997e-07 1068.24 -3.32997e-07C1086.65 -3.32997e-07 1103.02 -3.32997e-07 1121.43 -3.32997e-07C1139.84 -3.32997e-07 1158.25 -3.32997e-07 1176.67 -3.32997e-07C1195.08 -3.32997e-07 1213.49 -3.32997e-07 1231.9 -3.32997e-07C1250.32 -3.32997e-07 1266.68 -3.32997e-07 1285.1 -3.32997e-07C1303.51 -3.32997e-07 1321.92 -3.32997e-07 1340.33 -3.32997e-07C1358.75 -3.32997e-07 1377.16 -3.32997e-07 1395.57 -3.32997e-07C1413.98 -3.32997e-07 1430.35 -3.32997e-07 1448.76 -3.32997e-07C1467.17 -3.32997e-07 1485.59 -3.32997e-07 1495.82 -3.32997e-07H1504V16.6195Z"
    fill="white" />
  <defs>
    <filter id="filter0_f_65_321" x="0" y="8" width="1481" height="146" filterUnits="userSpaceOnUse"
      color-interpolation-filters="sRGB">
      <feFlood flood-opacity="0" result="BackgroundImageFix" />
      <feBlend mode="normal" in="SourceGraphic" in2="BackgroundImageFix" result="shape" />
      <feGaussianBlur stdDeviation="2" result="effect1_foregroundBlur_65_321" />
    </filter>
    <linearGradient id="paint0_linear_65_321" x1="740.5" y1="150" x2="581.454" y2="152.736"
      gradientUnits="userSpaceOnUse">
      <stop stop-color="#3E3E3E" />
      <stop offset="1" stop-color="#303030" />
    </linearGradient>
    <linearGradient id="paint1_linear_65_321" x1="754.5" y1="146" x2="595.454" y2="148.736"
      gradientUnits="userSpaceOnUse">
      <stop stop-color="#BBBBBB" />
      <stop offset="1" stop-color="#AAAAAA" />
    </linearGradient>
  </defs>
</svg>