<svg width="1440" height="154" viewBox="0 0 1440 154" fill="none" xmlns="http://www.w3.org/2000/svg">
<g filter="url(#filter0_f_118_442)">
<path fill-rule="evenodd" clip-rule="evenodd" d="M1443 28.6195L1434.82 39.1956C1424.59 49.7717 1406.18 71.6793 1387.76 74.701C1369.35 76.9673 1352.98 61.1032 1334.57 49.7717C1316.16 39.1956 1297.75 33.9076 1279.33 47.5054C1260.92 61.1032 1242.51 93.5869 1224.1 110.206C1205.68 126.071 1189.32 126.071 1170.9 131.359C1152.49 137.402 1134.08 147.978 1115.67 144.956C1097.25 142.69 1078.84 126.071 1060.43 117.761C1042.02 110.206 1025.65 110.206 1007.24 98.8749C988.825 88.2988 970.413 66.3912 952 69.413C933.587 71.6793 915.175 98.8749 896.763 120.782C878.35 142.69 861.983 158.554 843.571 144.956C825.158 131.359 806.746 88.2988 788.333 71.6793C769.921 55.8152 751.508 66.3912 733.096 63.3695C714.683 61.1032 698.317 44.4837 679.904 36.1739C661.492 28.6195 643.079 28.6195 624.667 44.4837C606.254 61.1032 587.842 93.5869 569.429 112.473C551.017 131.359 534.65 137.402 516.237 137.402C497.825 137.402 479.413 131.359 461 123.804C442.587 115.494 424.175 104.163 405.762 85.2771C387.35 66.3912 370.983 39.1956 352.571 28.6195C334.158 17.288 315.746 22.5761 297.333 47.5054C278.921 71.6793 260.508 115.494 242.096 129.092C223.683 142.69 207.317 126.071 188.904 110.206C170.492 93.5869 152.079 76.9673 133.667 79.989C115.254 83.0108 96.8417 104.163 78.4292 96.6086C60.0167 88.2988 43.65 49.7717 25.2375 39.1956C6.82505 28.6195 -11.5875 44.4837 -21.8167 52.7934L-30 61.1032V12H-21.8167C-11.5875 12 6.82505 12 25.2375 12C43.65 12 60.0167 12 78.4292 12C96.8417 12 115.254 12 133.667 12C152.079 12 170.492 12 188.904 12C207.317 12 223.683 12 242.096 12C260.508 12 278.921 12 297.333 12C315.746 12 334.158 12 352.571 12C370.983 12 387.35 12 405.762 12C424.175 12 442.587 12 461 12C479.413 12 497.825 12 516.237 12C534.65 12 551.017 12 569.429 12C587.842 12 606.254 12 624.667 12C643.079 12 661.492 12 679.904 12C698.317 12 714.683 12 733.096 12C751.508 12 769.921 12 788.333 12C806.746 12 825.158 12 843.571 12C861.983 12 878.35 12 896.763 12C915.175 12 933.587 12 952 12C970.413 12 988.825 12 1007.24 12C1025.65 12 1042.02 12 1060.43 12C1078.84 12 1097.25 12 1115.67 12C1134.08 12 1152.49 12 1170.9 12C1189.32 12 1205.68 12 1224.1 12C1242.51 12 1260.92 12 1279.33 12C1297.75 12 1316.16 12 1334.57 12C1352.98 12 1369.35 12 1387.76 12C1406.18 12 1424.59 12 1434.82 12H1443V28.6195Z" fill="url(#paint0_linear_118_442)"/>
</g>
<path fill-rule="evenodd" clip-rule="evenodd" d="M1457 24.6195L1448.82 35.1956C1438.59 45.7717 1420.17 67.6793 1401.76 70.701C1383.35 72.9673 1366.98 57.1032 1348.57 45.7717C1330.16 35.1956 1311.75 29.9076 1293.33 43.5054C1274.92 57.1032 1256.51 89.5869 1238.1 106.206C1219.68 122.071 1203.32 122.071 1184.9 127.359C1166.49 133.402 1148.08 143.978 1129.67 140.956C1111.25 138.69 1092.84 122.071 1074.43 113.761C1056.02 106.206 1039.65 106.206 1021.24 94.8749C1002.82 84.2988 984.412 62.3912 966 65.413C947.587 67.6793 929.175 94.8749 910.762 116.782C892.35 138.69 875.983 154.554 857.571 140.956C839.158 127.359 820.746 84.2988 802.333 67.6793C783.921 51.8152 765.508 62.3912 747.096 59.3695C728.683 57.1032 712.317 40.4837 693.904 32.1739C675.492 24.6195 657.079 24.6195 638.667 40.4837C620.254 57.1032 601.842 89.5869 583.429 108.473C565.017 127.359 548.65 133.402 530.237 133.402C511.825 133.402 493.412 127.359 475 119.804C456.587 111.494 438.175 100.163 419.762 81.2771C401.35 62.3912 384.983 35.1956 366.571 24.6195C348.158 13.288 329.746 18.5761 311.333 43.5054C292.921 67.6793 274.508 111.494 256.096 125.092C237.683 138.69 221.317 122.071 202.904 106.206C184.492 89.5869 166.079 72.9673 147.667 75.989C129.254 79.0108 110.842 100.163 92.4292 92.6086C74.0167 84.2988 57.65 45.7717 39.2375 35.1956C20.825 24.6195 2.41249 40.4837 -7.81668 48.7934L-16 57.1032V8H-7.81668C2.41249 8 20.825 8 39.2375 8C57.65 8 74.0167 8 92.4292 8C110.842 8 129.254 8 147.667 8C166.079 8 184.492 8 202.904 8C221.317 8 237.683 8 256.096 8C274.508 8 292.921 8 311.333 8C329.746 8 348.158 8 366.571 8C384.983 8 401.35 8 419.762 8C438.175 8 456.587 8 475 8C493.412 8 511.825 8 530.237 8C548.65 8 565.017 8 583.429 8C601.842 8 620.254 8 638.667 8C657.079 8 675.492 8 693.904 8C712.317 8 728.683 8 747.096 8C765.508 8 783.921 8 802.333 8C820.746 8 839.158 8 857.571 8C875.983 8 892.35 8 910.762 8C929.175 8 947.587 8 966 8C984.412 8 1002.82 8 1021.24 8C1039.65 8 1056.02 8 1074.43 8C1092.84 8 1111.25 8 1129.67 8C1148.08 8 1166.49 8 1184.9 8C1203.32 8 1219.68 8 1238.1 8C1256.51 8 1274.92 8 1293.33 8C1311.75 8 1330.16 8 1348.57 8C1366.98 8 1383.35 8 1401.76 8C1420.17 8 1438.59 8 1448.82 8H1457V24.6195Z" fill="url(#paint1_linear_118_442)"/>
<path fill-rule="evenodd" clip-rule="evenodd" d="M1470 16.6195L1461.82 27.1956C1451.59 37.7717 1433.17 59.6793 1414.76 62.701C1396.35 64.9673 1379.98 49.1032 1361.57 37.7717C1343.16 27.1956 1324.75 21.9076 1306.33 35.5054C1287.92 49.1032 1269.51 81.5869 1251.1 98.2064C1232.68 114.071 1216.32 114.071 1197.9 119.359C1179.49 125.402 1161.08 135.978 1142.67 132.956C1124.25 130.69 1105.84 114.071 1087.43 105.761C1069.02 98.2064 1052.65 98.2064 1034.24 86.8749C1015.82 76.2988 997.412 54.3912 979 57.413C960.587 59.6793 942.175 86.8749 923.762 108.782C905.35 130.69 888.983 146.554 870.571 132.956C852.158 119.359 833.746 76.2988 815.333 59.6793C796.921 43.8152 778.508 54.3912 760.096 51.3695C741.683 49.1032 725.317 32.4837 706.904 24.1739C688.492 16.6195 670.079 16.6195 651.667 32.4837C633.254 49.1032 614.842 81.5869 596.429 100.473C578.017 119.359 561.65 125.402 543.237 125.402C524.825 125.402 506.412 119.359 488 111.804C469.587 103.494 451.175 92.1629 432.762 73.2771C414.35 54.3912 397.983 27.1956 379.571 16.6195C361.158 5.28804 342.746 10.5761 324.333 35.5054C305.921 59.6793 287.508 103.494 269.096 117.092C250.683 130.69 234.317 114.071 215.904 98.2064C197.492 81.5869 179.079 64.9673 160.667 67.989C142.254 71.0108 123.842 92.1629 105.429 84.6086C87.0167 76.2988 70.65 37.7717 52.2375 27.1956C33.825 16.6195 15.4125 32.4837 5.18332 40.7934L-3.00001 49.1032V-3.32997e-07H5.18332C15.4125 -3.32997e-07 33.825 -3.32997e-07 52.2375 -3.32997e-07C70.65 -3.32997e-07 87.0167 -3.32997e-07 105.429 -3.32997e-07C123.842 -3.32997e-07 142.254 -3.32997e-07 160.667 -3.32997e-07C179.079 -3.32997e-07 197.492 -3.32997e-07 215.904 -3.32997e-07C234.317 -3.32997e-07 250.683 -3.32997e-07 269.096 -3.32997e-07C287.508 -3.32997e-07 305.921 -3.32997e-07 324.333 -3.32997e-07C342.746 -3.32997e-07 361.158 -3.32997e-07 379.571 -3.32997e-07C397.983 -3.32997e-07 414.35 -3.32997e-07 432.762 -3.32997e-07C451.175 -3.32997e-07 469.587 -3.32997e-07 488 -3.32997e-07C506.412 -3.32997e-07 524.825 -3.32997e-07 543.237 -3.32997e-07C561.65 -3.32997e-07 578.017 -3.32997e-07 596.429 -3.32997e-07C614.842 -3.32997e-07 633.254 -3.32997e-07 651.667 -3.32997e-07C670.079 -3.32997e-07 688.492 -3.32997e-07 706.904 -3.32997e-07C725.317 -3.32997e-07 741.683 -3.32997e-07 760.096 -3.32997e-07C778.508 -3.32997e-07 796.921 -3.32997e-07 815.333 -3.32997e-07C833.746 -3.32997e-07 852.158 -3.32997e-07 870.571 -3.32997e-07C888.983 -3.32997e-07 905.35 -3.32997e-07 923.762 -3.32997e-07C942.175 -3.32997e-07 960.587 -3.32997e-07 979 -3.32997e-07C997.412 -3.32997e-07 1015.82 -3.32997e-07 1034.24 -3.32997e-07C1052.65 -3.32997e-07 1069.02 -3.32997e-07 1087.43 -3.32997e-07C1105.84 -3.32997e-07 1124.25 -3.32997e-07 1142.67 -3.32997e-07C1161.08 -3.32997e-07 1179.49 -3.32997e-07 1197.9 -3.32997e-07C1216.32 -3.32997e-07 1232.68 -3.32997e-07 1251.1 -3.32997e-07C1269.51 -3.32997e-07 1287.92 -3.32997e-07 1306.33 -3.32997e-07C1324.75 -3.32997e-07 1343.16 -3.32997e-07 1361.57 -3.32997e-07C1379.98 -3.32997e-07 1396.35 -3.32997e-07 1414.76 -3.32997e-07C1433.17 -3.32997e-07 1451.59 -3.32997e-07 1461.82 -3.32997e-07H1470V16.6195Z" fill="#9B57F0"/>
<defs>
<filter id="filter0_f_118_442" x="-34" y="8" width="1481" height="146" filterUnits="userSpaceOnUse" color-interpolation-filters="sRGB">
<feFlood flood-opacity="0" result="BackgroundImageFix"/>
<feBlend mode="normal" in="SourceGraphic" in2="BackgroundImageFix" result="shape"/>
<feGaussianBlur stdDeviation="2" result="effect1_foregroundBlur_118_442"/>
</filter>
<linearGradient id="paint0_linear_118_442" x1="706.5" y1="150" x2="547.454" y2="152.736" gradientUnits="userSpaceOnUse">
<stop stop-color="#F1E7FF"/>
<stop offset="1" stop-color="#E8D7FC"/>
</linearGradient>
<linearGradient id="paint1_linear_118_442" x1="720.5" y1="146" x2="561.454" y2="148.736" gradientUnits="userSpaceOnUse">
<stop stop-color="#BA83FF"/>
<stop offset="1" stop-color="#C89FFA"/>
</linearGradient>
</defs>
</svg>
